<svg xmlns="http://www.w3.org/2000/svg" viewBox="0 0 1200 630" width="1200" height="630">
	<defs>
		<linearGradient id="bg" x1="0" y1="0" x2="1" y2="1">
			<stop offset="0" stop-color="#0d1515" />
			<stop offset="1" stop-color="#1a2828" />
		</linearGradient>
		<linearGradient id="tint" x1="0" y1="0" x2="1" y2="0">
			<stop offset="0" stop-color="oklch(0.7 0.13 180)" stop-opacity="0.35" />
			<stop offset="1" stop-color="oklch(0.7 0.13 180)" stop-opacity="0" />
		</linearGradient>
	</defs>
	<rect width="1200" height="630" fill="url(#bg)" />
	<rect width="1200" height="630" fill="url(#tint)" />
	<g transform="translate(92 160)">
		<rect width="72" height="72" rx="20" fill="oklch(0.3 0.075 180)" />
		<path d="M18 54V18h27a14 14 0 0 1 7 26l6 10H49l-5-10h-15v10Zm11-20h15a4 4 0 0 0 0-8H29Z" fill="oklch(0.89 0.097 180)" />
	</g>
	<text x="92" y="340" fill="#ffffff" font-family="Inter, system-ui, sans-serif" font-size="108" font-weight="500" letter-spacing="-3">
		Reseam
	</text>
	<text x="92" y="410" fill="oklch(0.7 0.13 180)" font-family="Inter, system-ui, sans-serif" font-size="44" font-weight="500" letter-spacing="-1">
		Put the features back where they belong.
	</text>
	<text x="92" y="470" fill="#cbd6d6" font-family="Inter, system-ui, sans-serif" font-size="28" font-weight="400">
		A small, signed patch system for Android apps.
	</text>
	<g transform="translate(840 160)" opacity="0.9">
		<rect width="260" height="240" rx="28" fill="oklch(0.22 0.005 180)" stroke="oklch(0.38 0.018 180)" />
		<rect x="28" y="28" width="52" height="52" rx="12" fill="oklch(0.3 0.025 180)" />
		<path d="M42 54h24M54 42v24" stroke="oklch(0.89 0.028 180)" stroke-width="3" stroke-linecap="round" transform="translate(28 28)" />
		<rect x="96" y="40" width="120" height="12" rx="6" fill="oklch(0.32 0.005 180)" />
		<rect x="96" y="60" width="80" height="10" rx="5" fill="oklch(0.32 0.005 180)" />
		<rect x="28" y="120" width="204" height="18" rx="9" fill="oklch(0.32 0.005 180)" />
		<rect x="28" y="150" width="156" height="18" rx="9" fill="oklch(0.32 0.005 180)" />
		<rect x="28" y="180" width="104" height="18" rx="9" fill="oklch(0.32 0.005 180)" />
		<line x1="200" y1="12" x2="200" y2="228" stroke="oklch(0.7 0.13 180)" stroke-width="2" stroke-dasharray="6 6" />
		<g transform="translate(170 0)">
			<rect x="0" y="-14" width="120" height="32" rx="16" fill="oklch(0.7 0.13 180)" />
			<path d="M18 0l6 6 14-14" stroke="#0d1515" stroke-width="3" stroke-linecap="round" fill="none" />
			<text x="46" y="5" fill="#0d1515" font-family="Inter, system-ui, sans-serif" font-size="16" font-weight="500">patched</text>
		</g>
	</g>
</svg>
